<?xml version="1.0" encoding="utf-8"?>
<!-- Generator: Adobe Illustrator 26.4.1, SVG Export Plug-In . SVG Version: 6.00 Build 0)  -->
<svg version="1.1" id="Layer_1" xmlns="http://www.w3.org/2000/svg" xmlns:xlink="http://www.w3.org/1999/xlink" x="0px" y="0px"
	 viewBox="0 0 488 189" style="enable-background:new 0 0 488 189;" xml:space="preserve">
<style type="text/css">
	.st0{fill:#1A3B5C;}
	.st1{fill:#ECCB49;}
	.st2{fill:#3878BC;}
	.st3{fill:#FE663B;}
	.st4{fill:#EB4D00;}
</style>
<path class="st0" d="M0,56.4V34.2h94.5v22.1H61.7v97.2H32.5V56.4H0z"/>
<path class="st0" d="M203.2,70.8c0,8-2.9,15.8-8.7,23.3c-3.1,3.9-7.6,7-13.9,9.5c-6,2.4-13.2,3.6-21.5,3.6h-18.1v46.4h-29.2V34.2
	h47.2c13.9,0,24.7,3.6,32.4,10.7C199.3,52.1,203.2,60.7,203.2,70.8z M141.1,85h18.1c4.4,0,7.9-1.3,10.4-3.9c2.6-2.6,4-6,4-10.2
	c0-4.3-1.3-7.8-4-10.6c-2.6-2.7-6.1-4.1-10.4-4.1h-18.1V85z"/>
<path class="st0" d="M231.4,137.3c-11.9-11.6-17.7-26.2-17.7-43.8s5.9-32.2,17.7-43.6c12-11.6,26.5-17.3,43.6-17.3
	c13.3,0,25.2,3.5,35.5,10.6c10.4,7.1,17.5,16.8,21.7,29.2h-34.8c-4.5-8.8-11.9-13.1-21.9-13.1c-10,0-17.9,3.1-23.7,9.3
	c-5.7,6.2-8.6,14.5-8.6,25s2.8,18.8,8.6,25c5.8,6.2,13.6,9.3,23.2,9.3c7,0,12.5-1.7,16.9-5.1c4.4-3.5,7.4-8.1,8.9-13.9l-25.7-7.5
	V86.7h57.1v22.1c-2.2,10.8-8.1,21-17.9,30.4c-4.6,4.5-10.5,8.2-17.4,11c-6.8,2.8-14.1,4.2-21.9,4.2
	C257.9,154.5,243.4,148.8,231.4,137.3z"/>
<rect x="363" y="32.5" class="st1" width="95.7" height="122.6"/>
<circle class="st2" cx="363" cy="48.8" r="16.3"/>
<path class="st0" d="M363,65.1c9,0,16.3-7.3,16.3-16.3S372,32.5,363,32.5l0,0V65.1z"/>
<path class="st2" d="M348,75.1h30.1v80.1H348V75.1z"/>
<path class="st0" d="M363,75.1v80.1h15V95.9l15.1-9.4V75.1H363z"/>
<path class="st3" d="M410.9,5.5l47.9,27v122.6l-47.9,28V5.5z"/>
<rect x="410.9" y="32.5" class="st4" width="47.9" height="122.6"/>
<g>
	<path class="st0" d="M467,32.5c0-1.8,0.5-3.5,1.3-5s2.1-2.7,3.7-3.7c1.5-0.9,3.2-1.3,5-1.3c1.8,0,3.5,0.5,5,1.3
		c1.5,0.8,2.7,2.1,3.7,3.7c0.9,1.5,1.3,3.2,1.3,5s-0.5,3.4-1.3,4.9c-0.8,1.5-2.1,2.7-3.6,3.7c-1.5,0.9-3.3,1.4-5.1,1.4
		c-1.9,0-3.6-0.5-5.1-1.4c-1.5-0.9-2.7-2.2-3.7-3.7C467.5,36,467,34.3,467,32.5z M468.9,32.5c0,1.4,0.4,2.8,1.1,4.1
		c0.8,1.2,1.7,2.3,3,3c1.2,0.8,2.6,1.1,4.1,1.1s2.8-0.4,4.1-1.1s2.3-1.7,3-3c0.8-1.2,1.1-2.6,1.1-4.1c0-1.4-0.4-2.8-1.1-4.1
		c-0.8-1.2-1.7-2.3-3-3c-1.2-0.8-2.6-1.1-4.1-1.1s-2.8,0.4-4.1,1.1c-1.2,0.8-2.3,1.7-3,3C469.3,29.8,468.9,31.1,468.9,32.5z
		 M481.1,30.3c0,1.5-0.7,2.5-1.9,3.1l3.2,5.4H479l-2.4-4.5H476v4.5h-3V26.5h3.5c1.6,0,2.8,0.3,3.6,0.9
		C480.7,28,481.1,28.9,481.1,30.3z M476,32h0.4c0.6,0,1-0.1,1.2-0.4c0.3-0.3,0.4-0.7,0.4-1.2s-0.1-0.9-0.4-1.2
		c-0.3-0.3-0.7-0.4-1.3-0.4h-0.4L476,32L476,32z"/>
</g>
</svg>
