<?xml version="1.0" encoding="UTF-8"?>
<svg id="Full_Logo" data-name="Full Logo" xmlns="http://www.w3.org/2000/svg" viewBox="0 0 910.18 580">
  <defs>
    <style>
      .cls-1 {
        fill: #e6a589;
      }

      .cls-1, .cls-2, .cls-3, .cls-4, .cls-5, .cls-6, .cls-7, .cls-8, .cls-9, .cls-10, .cls-11, .cls-12, .cls-13, .cls-14, .cls-15, .cls-16, .cls-17, .cls-18, .cls-19, .cls-20, .cls-21, .cls-22, .cls-23, .cls-24, .cls-25, .cls-26, .cls-27, .cls-28, .cls-29, .cls-30, .cls-31, .cls-32, .cls-33, .cls-34, .cls-35, .cls-36, .cls-37, .cls-38, .cls-39, .cls-40, .cls-41, .cls-42, .cls-43, .cls-44, .cls-45, .cls-46, .cls-47, .cls-48, .cls-49, .cls-50, .cls-51, .cls-52, .cls-53, .cls-54, .cls-55, .cls-56, .cls-57, .cls-58, .cls-59, .cls-60, .cls-61, .cls-62, .cls-63, .cls-64, .cls-65, .cls-66, .cls-67, .cls-68, .cls-69, .cls-70, .cls-71, .cls-72, .cls-73, .cls-74, .cls-75, .cls-76, .cls-77, .cls-78, .cls-79, .cls-80, .cls-81, .cls-82, .cls-83, .cls-84, .cls-85, .cls-86, .cls-87, .cls-88 {
        stroke-width: 0px;
      }

      .cls-2 {
        fill: #e19879;
      }

      .cls-3 {
        fill: #6ea561;
      }

      .cls-4 {
        fill: #b8623c;
      }

      .cls-5 {
        fill: #e9af96;
      }

      .cls-6 {
        fill: #e3997a;
      }

      .cls-7 {
        fill: #bee5f5;
      }

      .cls-8 {
        fill: #e19272;
      }

      .cls-9 {
        fill: #dc825c;
      }

      .cls-89 {
        fill: #fff;
      }

      .cls-89, .cls-90, .cls-91 {
        font-family: Ebrima-Bold, Ebrima;
        font-size: 87px;
        font-weight: 700;
      }

      .cls-10 {
        fill: #f1cebf;
      }

      .cls-11 {
        fill: #80994c;
      }

      .cls-90 {
        fill: #464646;
      }

      .cls-12 {
        fill: #80ae6b;
      }

      .cls-13 {
        fill: #5abde6;
      }

      .cls-14 {
        fill: #58bce6;
      }

      .cls-15 {
        fill: #95ba7c;
      }

      .cls-16 {
        fill: #6bc4e9;
      }

      .cls-17 {
        fill: #9dd8f0;
      }

      .cls-18 {
        fill: #d49670;
      }

      .cls-19 {
        fill: #83ae66;
      }

      .cls-20 {
        fill: #e9b098;
      }

      .cls-21 {
        fill: #c7daba;
      }

      .cls-22 {
        fill: #a4dbf1;
      }

      .cls-23 {
        fill: #7a9848;
      }

      .cls-24 {
        fill: #df8966;
      }

      .cls-25 {
        fill: #809c4f;
      }

      .cls-26 {
        fill: #65c2e8;
      }

      .cls-27 {
        fill: #cbeaf7;
      }

      .cls-28 {
        fill: #60bce2;
      }

      .cls-29 {
        fill: #94b97a;
      }

      .cls-30 {
        fill: #70c6ea;
      }

      .cls-31 {
        fill: #eff8fc;
      }

      .cls-32 {
        fill: #ba6847;
      }

      .cls-33 {
        fill: #dd8560;
      }

      .cls-34 {
        fill: #d5e1c8;
      }

      .cls-35 {
        fill: #e29676;
      }

      .cls-36 {
        fill: #6dc5ea;
      }

      .cls-37 {
        fill: #b9e3f4;
      }

      .cls-38 {
        fill: #7dcbec;
      }

      .cls-39 {
        fill: #e6a489;
      }

      .cls-40 {
        fill: #b2e0f3;
      }

      .cls-41 {
        fill: #e39b7d;
      }

      .cls-42 {
        fill: #85a961;
      }

      .cls-43 {
        fill: #bd6642;
      }

      .cls-91 {
        fill: #787878;
      }

      .cls-44 {
        fill: #e5eedf;
      }

      .cls-45 {
        fill: #dd855f;
      }

      .cls-46 {
        fill: #e19171;
      }

      .cls-47 {
        fill: #6fa561;
      }

      .cls-48 {
        fill: #c6dab9;
      }

      .cls-49 {
        fill: #99d6f0;
      }

      .cls-50 {
        fill: #e9f5fb;
      }

      .cls-51 {
        fill: #b86d4d;
      }

      .cls-52 {
        fill: #dc815b;
      }

      .cls-53 {
        fill: #1f1f1f;
      }

      .cls-54 {
        fill: #72b3cf;
      }

      .cls-55 {
        fill: #59bde6;
      }

      .cls-56 {
        fill: #89b26d;
      }

      .cls-57 {
        fill: #8fb574;
      }

      .cls-58 {
        fill: #6aa770;
      }

      .cls-59 {
        fill: #e49e80;
      }

      .cls-60 {
        fill: #dc805b;
      }

      .cls-61 {
        fill: #9cbe84;
      }

      .cls-62 {
        fill: #8ad0ed;
      }

      .cls-63 {
        fill: #bc7658;
      }

      .cls-64 {
        fill: #dd825d;
      }

      .cls-65 {
        fill: #b5cfa4;
      }

      .cls-66 {
        fill: #b8e2f4;
      }

      .cls-67 {
        fill: #dd8a66;
      }

      .cls-68 {
        fill: #7d9d4f;
      }

      .cls-69 {
        fill: #81ae6b;
      }

      .cls-70 {
        fill: #94b97b;
      }

      .cls-71 {
        fill: #df8b67;
      }

      .cls-72 {
        fill: #efd1c1;
      }

      .cls-73 {
        fill: #e49b7d;
      }

      .cls-74 {
        fill: #1e1e1e;
      }

      .cls-75 {
        fill: #7a9a4b;
      }

      .cls-76 {
        fill: #79caeb;
      }

      .cls-77 {
        fill: #5abde7;
      }

      .cls-78 {
        fill: #67c3e9;
      }

      .cls-79 {
        fill: #b5cea3;
      }

      .cls-80 {
        fill: #9d9f61;
      }

      .cls-81 {
        fill: #5fc0e8;
      }

      .cls-82 {
        fill: #95b97c;
      }

      .cls-83 {
        fill: #8eb573;
      }

      .cls-84 {
        fill: #61c0e8;
      }

      .cls-85 {
        fill: #58bde6;
      }

      .cls-86 {
        fill: #de8763;
      }

      .cls-87 {
        fill: #8ed2ee;
      }

      .cls-88 {
        fill: #de8965;
      }
    </style>
  </defs>
  <g id="Layer_2_Image" data-name="Layer 2 Image">
    <g>
      <path class="cls-53" d="m125.05,10.09c6.36,3.83,8.72,7.63,7.65,12.27-1.13,4.89-5.58,8.69-10.14,8.69-4.2,0-8.4-3.32-9.81-7.76-1.43-4.5.47-8.91,4.93-11.75.78-.5,2.04-.25,2.38-1.45h5Z"/>
      <path class="cls-53" d="m129.05,548.91c-6.36-3.83-8.72-7.63-7.65-12.27,1.13-4.89,5.58-8.69,10.14-8.69,4.2,0,8.4,3.32,9.81,7.76,1.43,4.5-.47,8.91-4.93,11.75-.78.5-2.04.25-2.38,1.45h-5Z"/>
      <path class="cls-53" d="m588.9,293.99c-3.83,6.36-7.63,8.72-12.28,7.65-4.89-1.13-8.69-5.58-8.69-10.14,0-4.2,3.32-8.4,7.76-9.81,4.5-1.43,8.91.47,11.75,4.93.5.78.25,2.04,1.45,2.38v5Z"/>
      <path class="cls-74" d="m184.14,473.98c-7.04,10.84-14.06,21.68-21.12,32.5-3.56,5.46-10.13,7.29-15.2,4.3-4.5-2.66-6.01-9.01-2.69-14.55,7.39-12.32,15.17-24.41,22.77-36.6,1.79-2.87,3.52-5.79,5.28-8.68-13.03-22.57-26.01-45.17-39.1-67.71-.92-1.58-1.71-3.23-2.68-4.78-3.45-5.54-3.07-10.87.21-16.42,7.77-13.16,15.28-26.46,23-39.64,3.44-5.88,6.72-11.84,10.18-17.71,1.28-2.52,3.01-4.78,4.28-7.31,3.74-4.24,3.47-8.26.16-12.84-2.58-3.57-4.48-7.66-6.9-11.39-1.85-3.9-4.26-7.48-6.35-11.24-6.62-11.35-13.37-22.63-19.63-34.18-2.17-4.01-4.94-5.82-9.56-5.49-4.63.33-9.31.09-13.97.1-1.37-.03-2.67-.3-3.76-1.2-6.11-.06-12.21-.16-18.32-.18-8.23-.03-11.21-2.73-11.82-10.77-1.31-5.17.64-8.1,6.23-9.32,7.28-1.4,14.66-.43,21.97-.99,6.66-2.2,13.54-1.05,20.3-1.05,4.49,0,7.34-1.29,9.64-5.36,11.05-19.55,22.41-38.92,33.6-58.39,1.47-2.56,2.42-5.08,1.68-8.04-3.77-8.23-8.88-15.7-13.31-23.56-8.87-15.73-17.95-31.34-26.75-47.11-2.92-5.24-1.11-11.48,3.55-14.19,4.81-2.8,11.81-.98,14.79,4.17,10.34,17.86,20.54,35.79,30.83,53.68,2.49,4.33,5.14,8.57,7.72,12.85.52.42.08-.27.4.28,4.21,7.08,11.02,6.58,17.87,6.41,8.28-.2,16.57-.07,24.85-.03,2.29.01,4.68-.28,6.65,1.37,5.01,0,10.01-.01,15.02-.02,1.33-.71,2.65-.79,3.97.03,1.03,0,2.06-.01,3.09-.02,1.94-1.7,4.04-.72,6.1-.37,3.71.57,5.14-3.08,7.9-4.29,7.2-11.42,14.67-22.67,21.47-34.31,3.44-5.89,9.04-7.3,15-4.87,5.52,2.26,6.71,8.06,3.5,14.46-4.34,8.65-9.86,16.6-14.96,24.79-.77,1.24-1.51,2.43-1.92,3.82.04,3.1-2.23,5.13-3.64,7.5-1.54,2.6-1.52,4.79,0,7.42,8.45,14.54,16.72,29.19,25.25,43.68,3.95,6.86,7.35,14.06,12.36,20.27,2.06,1.04,4.26.56,6.41.63,1.37-.02,2.74-.16,4.12-.06,20.11.06,40.22-.13,60.32.12,4.87.06,8.34-1.26,10.63-5.61,1.09-2.06,2.63-3.83,4.57-5.19,6.1-6.74,10.68-14.57,15.89-21.95,2.65-3.76,5.43-7.15,10.78-6.92,7.8.33,12.93,7.98,8.98,14.77-4.79,8.22-10.65,15.82-15.92,23.78-1.14,1.72-2.87,3.15-3.14,5.39-.23,1.14-.56,2.25-1.23,3.22-2.75,2.82-2.5,5.47-.49,8.87,11.12,18.87,21.94,37.92,32.88,56.89,1.2,2.07,1.9,4.7,4.62,5.57,3.1.22,6.21-.1,9.3.24.83.15,1.58.44,2.14,1.11,1.28-.02,2.55-.03,3.83-.05,3.75-2.15,7.49-1.72,11.23.01,14.12.07,28.24.15,42.36.2,6.7.02,11.99,4.44,11.64,10.19-.41,6.8-3.73,10.64-10.62,10.66-15.65.06-31.3.01-46.95.03-1.82,0-3.65.15-5.47.24-1.73,1.53-3.87,1.06-5.88,1.2-3.02-.06-6.04.06-9.05.02-2.63-.39-3.91,1.32-5.02,3.27-12,21.07-24.15,42.06-36.43,62.97-1.55,2.65-.71,4.75.56,6.95,4.99,8.63,9.46,17.54,14.43,26.18,1.49,2.58,3.05,5.15,3.21,8.25.3,1.31.59,2.61.89,3.92-.81,1.78.49,3.63-.17,5.42-4.12,6.94-8.98,8.51-16.72,5.4-.76-.38-1.34-.97-1.87-1.61-5.07-5.44-7.51-12.45-11.15-18.74-3.06-5.3-6.19-10.6-8.75-16.18-1.62-3.52-4.06-5.06-8.19-5-16.59.25-33.18.03-49.78.14-.57.01-1.14,0-1.72,0-5.81-.04-11.61-.03-17.41,0-.55.02-1.11.05-1.66.09-3.21.46-3.96,3.36-5.22,5.56-12.32,21.5-25.02,42.79-37.2,64.37-3.62,6.42-8.49,9.04-15.8,8.98-25.47-.23-50.94-.01-76.42-.17-4.17-.03-7,1.13-8.76,4.99-1.26,2.76-3.48,4.83-5.76,6.8Z"/>
      <path class="cls-83" d="m332.93,382.13c.34,0,.67-.01,1.01-.02.72.64,1.46,1.26,1.38,2.37-.7,2.08-2.43,3.55-3.19,5.62-.84,2.3-.62,4.25,1.37,5.82,1.57,1.23,3.29,1.71,5.07.53,2.15-1.42,2.29-3.5,1.65-5.76-.18-.64-.06.18-.15-.47-.21-1.58-2.69-3.46-.05-4.66,2.04-.94,3.84.29,4.71,2.48,2.52,4.41.71,6.83.17,9.16,0,.46-.07.92-.18,1.37.29,1.02-2.88,2.21.17,3.1.37.26.65.58.85.99.48,1.31.41,2.68.48,4.04,0,1.38.37,2.71.58,4.07.03.48-.02.94-.13,1.4-.16.45-.4.85-.7,1.21.5,3.02,2.74,4.39.44,7.58-1.14,1.58-.49,2.99-.29,4.99-.02,2.21.57,4.28,1.46,6.29.09.53.08,1.05,0,1.58-.49,6.86.12,13.73-.16,20.59-.18.21-.37.42-.56.63-4.8-5.22-10.29-9.05-17.61-10.11-6.26-.9-12.06,2.57-12.31,8.01l.06-.05c-1.53-.62-3.04-1.32-4.61-1.85-8.19-2.8-8.56-2.11-12.27,5.47-2.27,4.66-1.77,8.25,0,12.63,2.22,5.49.79,7.21-4.89,7.05-7.18-.21-11.9,4.26-12.05,11.36-.04,1.99-.03,4-.28,5.98-.48,3.81-3.75,5.01-6.77,2.49-1.78-1.49-3.42-3.15-5.12-4.74-1.78-1.67-3.31-4.22-6.25-3.02-3.01,1.23-4.22,4.01-4.81,7.06-.27,1.36.51,3.09-1.76,4.08.95-6.44,1.37-12.65-.13-18.87-1.63-6.79-2.21-7.4-9.33-7.4-1.33,0-2.67.12-3.99-.02-3.3-.36-4.6.82-4.93,4.35-.82,8.63.75,17.19.19,25.79-.08,1.15.09,2.32.14,3.49.33,1.12.86,2.35-1.17,2.25-.8-7.06-6.03-13.32-3.36-21.11.86-2.5-1.18-4.69-4.14-3.96-6.81,1.69-13.9,3.1-16.52,11.19-.65,1.99-1.51,4.02-3.48,5.33-3.24,2.16-7.4,1.11-8.45-2.63-1.02-3.66-2.16-7.55-1.88-11.24.39-5.01-.79-9.9-.22-14.87.42-3.7-1.83-4.32-4.73-3.26-3.1,1.13-6.09,2.54-9.13,3.82.62-3.86,3.15-6.73,5.27-9.76,1.23-1.75,3.39-.99,5.15-.99,26.44-.04,52.88-.15,79.32.06,6.26.05,10.1-2.46,13.13-7.78,13.05-22.88,26.36-45.61,39.58-68.39.84-1.45,1.49-2.98,3.42-3.24Z"/>
      <path class="cls-14" d="m172.35,127.07c2.31,2.38,2.05,4.24.23,7.31-10.88,18.35-21.3,36.97-31.87,55.5-.24.42-.47.86-.65,1.32-2.81,7.05-7.57,10.15-15.5,9.02-5.71-.82-11.62-.26-17.44-.31,5.09-4.39,5.17-5.16-.59-7.62-9.06-3.87-9.68-12.39-11.23-20.16-1.14-5.75-1.05-5.86-7.13-5.37-8.37.67-17.06-2.63-20.66-11.85-3.18-8.14-2.21-15.47,1.74-22.81.76-1.41,2.3-1.84,3.62-2.5,2.67-1.35,5.46-2.45,7.77-4.44,1.68-1.45,3.53-5.22,5.08.13,5.92-1.92,8.9,7.34,15.6,3.83-.17,3.06-.42,6.06,3.02,7.62,1.48.67,1.78,2.17,1.03,3.86-.99,2.24.9,3.31,2.26,4.44,1.35,1.12,2.48.1,3.54-.69q6.37-4.76,11.76.88c2.36,2.61,1.27-1.06,2.13-1.17,2.11-1.1,2.53.96,3.25,1.95,2.28,3.17,4.98,2.7,7.04.35,2.3-2.62,6.52-4.34,5.16-9.3-.29-1.06,1.4-2.67,2.37-4.36,2.61,3.07,3.05,7.49,7.75,7.53,4.67.04,6.43-1.61,6.71-6.58.08-1.47.57-2.91.88-4.37.49-.9,1.16-.77,1.89-.33,1.3,2.16.78,4.53.79,6.84,0,1.05.32,1.98,1.28,2.54.93.54,1.89.04,2.04-.71.99-4.88,5.59-6.91,8.13-10.55Z"/>
      <path class="cls-83" d="m135.5,271.44c.78-.35,1.57-.68,2.37-.96.38-.12.77-.18,1.16-.22.79-.01,1.36-.36,1.66-1.13.24-.36.55-.6.94-.77,1.4-.4,2.65.04,3.87.66,2.82,1.63,4.71,4.31,7.2,6.32,1.65,1.43,3.33,1.13,5.07.13,1.45-.83,2.95-1.56,4.71-1.38,5.03,4.42,7.31,10.6,10.11,16.36,1.29,2.65-2.5,4.7-2.68,7.51-1.34,2.35-2.69,4.7-4.03,7.05-5.94,7.61-9.9,16.43-14.84,24.64-6.14,10.22-11.84,20.71-18.04,30.9-3.77,6.19-4.69,11.98-.71,18.59,8.28,13.77,16.16,27.79,24.15,41.74,4.95,8.64,10.03,17.19,14.92,25.86.95,1.68,1.4,2.71-1.24,2.17-7.17-7.19-16.38-12.35-21.17-21.93-2.18-4.37-6.92-5.36-11.13-6.86-2.77-1.45-5.79-.86-8.58-.56-3.84.41-4.91-1.35-5.07-4.57,1.62-7.27-.77-11.27-8.1-13.77-4.24-1.45-8.52-2.82-12.65-4.53-5.08-2.11-7.26-6.32-6.27-11.6.21-1.15-.37-2.89,1.61-3.17,1.71-.24,3.37-.13,4.38,1.57,1.17,1.98,2.76,3.7,3.03,6.18.23,2.13,1.53,3.66,3.6,4.36,1.85.62,3.97,2,5.63.58,1.52-1.3.16-3.4,0-5.16-.34-3.52-2.76-6.67-1.45-10.54.58-1.69-1.28-2.89-2.55-3.97-2.7-2.28-4.11-4.78-3.35-8.66,1.12-5.68-4.41-4.55-7.18-6.22.48-.85,1.65-.35,2.19-1.1,2.41-.66,5.68.83,7.01-2.48,1.71-4.27,4.79-8.41,3.65-13.19-.85-3.56-4.44-4.6-7.86-5.14-1.67-.26-4.21.51-4.31-2.13-.08-2.33.91-4.24,3.65-5.26,4.8-1.79,9.38-4.24,14.45-5.17,5.87-1.08,9.16-5.75,13.28-9.17,6.62-5.5,13.01-11.22,17.96-18.49,2.64-3.88,2.77-6.68-.3-10.1-5.06-5.64-12.02-8.82-17.54-13.84"/>
      <path class="cls-52" d="m343.88,398.95l.2-1.13c.53-.66.83-1.46,1.26-2.18.63-2.01.63-3.99-.28-5.92-.28-.62-.53-1.24-.54-1.94.77-3.33,4.14-3.05,6.26-4.5.8-.3,1.61-.59,2.26-1.19l.99.04c14.77.78,29.59.79,44.32.1,8.85-.42,13.36,2.61,16.96,10.46,4.26,9.3,9.41,18.26,14.7,27.08.58.98,1.29,1.96,1.15,3.22-.46.38-.97.65-1.54.81-2.92.67-5.78-.16-8.67-.27-1.6-.06-3.56-1.04-4.92.81-2.43,8.96-7.46,16.32-14.55,22.09-6.65,5.42-13.23,4.47-18.9-2-2.9-3.32-4.38-7.42-6.4-11.23-1.63-3.08-1.58-7.42-6.64-8.34-.96-.17-2.62-4.41-2.14-7.85.58-4.21,3.67-9.68-5.02-11.8-4.28-1.04-9.69-4.15-13.32-8.22-1.43,4.83-.09,9.8-.71,14.67-.67.87-1.43.89-2.25.23-.02-.35-.04-.69-.07-1.04.06-2.34-.02-4.68-.17-7.02-.19-.6-.37-1.21-.77-1.73l-.3-.26c-1.33-.64-1.7-1.58-.92-2.89Z"/>
      <path class="cls-52" d="m472.94,328.08c-1-.06-2.04-.33-2.98-.13-2.59.53-2.65,2.94-2.41,4.66.3,2.11,2.21,1.41,3.63.87,3.43-1.3,6.81-1.67,9.83.89,2.54,2.15,6.57,3.87,5.1,8.05-1.9,5.38-.37,13.44-10.02,13.51-4.96.03-6.09,2.12-4.53,6.86.79,2.4.62,4.13-1.54,5.62-1.17.81-3.19,2.27-1.9,3.39,1.32,1.14,1.95,3.94,4.8,3.1,1.57-.46,3.29-.43,4.94-.61,1.09-.12,2.02.22,2.52,1.21.57,1.11-.13,1.88-.92,2.55-.63.54-1.25,1.1-1.91,1.6-8.39,6.41-13,15.65-18.24,24.41-2.27,3.49-6.43,1.78-9.43,3.36-.67.35-1.25-.82-1.67-1.55-5.92-10.55-11.53-21.27-17.48-31.8-1.14-2.02-.82-3.69.29-5.55,12.3-20.62,23.9-42.08,35.81-62.92.04.12,0,0,3.01-4.51.01-.02.03-.03.05-.03l18.09.13h0c3.51,4.76,5.83,11.53,2.14,17.03-3.15,4.7-6.38,5.43-11.38,1.9-1.22-.69-2.83-.84-3.5.16-.77,1.13,1.78,1.54,1.48,3-.51,1.4-1.96,1.79-2.93,2.71-.55.6-.11,1.6-.86,2.12Z"/>
      <path class="cls-52" d="m433.1,206.06c.04-1.09.75-1.65,1.64-2.07,1.48,1.33,3.14,2.51,4.39,4.02,1.25,1.52,2.08,3.37,3.15,5.17,2.03.27,2.86-2.86,5.24-1.91.77,1.68-.39,3.22-1.45,3.71-2.73,1.25-3.96,2.93-3.66,5.97.07.72-1.56,1.71-.72,2.56.97.98,2.53.21,3.74.37,3.13.41,3.9-4.48,8.56-2.4,3.91,1.74,8.1,2.63,12.07,7.45-.81-7.58,6.22-7.02,8.45-11.28.92-1.77,3.28.42,5.07.47,7.96.18,12.45,7.07,12.31,13.98-.18,8.83-9.33,16.51-16.45,12.59-6.79-3.74-11.07-3.63-15.65,2.08-.2.25-.37.51-.85,1.19,5.72,1.03,7.48,5.12,7.95,10.15.38,1.2,2.53,1.15,2.08,2.94-2.62,2.7-1.18,5.92-1.09,8.94.05,1.65,1.22,2.22,2.8,1.96,1.86-.3,3.62-.11,5.17,1.1,1.13,3.91-2.19,3.39-4.16,4.21-3.07,1-4.66-.97-5.87-3.19-6.28-11.63-13.33-22.82-19.7-34.4-3.98-7.24-8.07-14.44-12.46-21.41-2.72-4.31-3.93-7.95-.56-12.19Z"/>
      <path class="cls-14" d="m113.18,221.12c5.97-.05,11.94-.08,17.91-.15,1.53-.02,2.98.01,3.86,1.57,7.4,13.14,14.81,26.27,22.22,39.4-.23,3.86-4.07,5.79-4.93,9.32-2.54,1.52-4.12-.5-5.94-1.61-3.61-1.7-6.51-4.4-9.59-6.85-1.2-1.33-2.65-2.38-4.01-3.54-.74-.87-1.23-1.88-1.72-2.9-1.65-1.82-.15,3.85-4.93,4.48-.31.26-2.36-.31-2.62,0-1.16.89,2.47-4.06-1.36-6.83-1.09-3.32-4.61-5.9-1.36-10.38,1.67-2.3-.9-5.31-4.09-6.06-1.9-.45-3.91-.46-6.08-.68,2.93-3.73,2.77-7.11-.4-10.35-.86-.87-2.22-1.73-.95-3.27.48-2.3,2.72-1.33,4-2.14Z"/>
      <path class="cls-14" d="m318.63,178.95c-8.55-14.6-17.08-29.22-25.66-43.8-1.47-2.5-2.28-4.7-.03-7.34,1.99-2.33,3.47-5.09,5.18-7.66,2.73,6.94,2.73,6.83,11.35,6.85,2.58,0,5.47.57,3.82,4.57-.22.54,0,1.25,0,1.89,6.08-.56,3.29,6.28,6.66,8,.27.14.53.46.63.75,1.27,3.74,5.59,2.58,7.77,4.85-3.01,2.5-2.7,5.78-2.17,9.12.02.16.1.35.05.49q-3.15,7.78,2.86,13.25l1.14,3.92c-3.12,3.4-6.58,6.05-11.61,5.12Z"/>
      <path class="cls-52" d="m396.85,182.11c3.36,1.65,6.75,4.31,9.39-1.1.85-1.74,1.87-.37,2.64.42,2.39,2.48,4.76,4.99,7.13,7.48-.36,6.48-5.46,11.6-11.58,11.6-19.38,0-38.76,0-58.12,0-2.64-.47-1.37-1.65-.32-2.47,1.9-1.47,4.38-1.43,6.57-2.16,2.08-.69,3.94-1.74,5.74-2.93,2.03-.83,4.22-.76,6.34-1.11,3.04.19,4.59-1.52,5.38-4.2.21-.42.5-.76.88-1.04,3.23-.02,5.67,1.32,7.21,4.2-.29,1.02-1.55,1.12-2.1,2.4,2.21.54,4.04-.26,5.86-1.09,2.08-2.54,4.43-5,2-9.1,4.2,2.62,7.66,1.91,11.07,0,.54-.5.81-1.55,1.89-.92Z"/>
      <path class="cls-85" d="m106.11,248.07c-.53,4.14-4.09,6.64-5.89,10.12-.85,1.65-5.79,1.9-8.73,1.54-2.38-.29-6.43.73-6.76-3.96-.07-.96-1.14-2.05-2.02-2.7-2.12-1.56-3.19-3.23-1.95-5.91.63-1.37.68-3.02.03-4.38-1.06-2.22.47-4.35,1.58-4.67,4.31-1.21,4.64-4.08,4.92-7.82.29-3.88,4.79-6.64,8.37-5.91,4,.82,5.73,4.38,5.25,8.87-.41,3.85,2.46,6.37,5.19,8.69.74,2.04.67,4.08,0,6.12Z"/>
      <path class="cls-9" d="m449.9,418.81c.41-1.6-.84-3.48.81-4.87.52,2.43,1.17,4.85,1.54,7.3.73,4.8-.63,8.71-5.65,10.22-3.74,1.12-4.71,3.36-4.55,7.04.89,21.06,1.01,42.16,3.54,63.13.29,2.39-.04,4.7-2.7,5.02-3.03.37-3.86-2.01-3.87-4.59-.07-19.6-.11-39.21-.16-58.81-.29-.61-.35-1.26-.38-1.93-.25-5.28,1.61-11.06-4.26-15.27,6.47-.83,13.41.74,15.69-7.25Z"/>
      <path class="cls-55" d="m238.96,120.94c-14.29.05-28.58.25-42.86.07-4.85-.06-4.99-5.06-6.92-8.1,3.31-1.67,6.57-.18,9.75.38,4.14.73,7.61.46,9.86-3.58,1.16-2.08,2.75-1.67,3.15.09,1.32,5.9,4.75,4.69,8.62,2.87-1.32-1.86-2.67-3.69-3.93-5.59-.48-.72-.57-1.62.19-2.26.85-.71,1.46-.02,2.12.49,3.12,2.4,7.75,3.68,6.34,9.31-.27,1.08.66,2.98,2.21,2.64,1.32-.29,1.78-1.81,1-3.29-.59-1.11-.79-2.38.37-3.13,1.54-.99,1.74.82,2.55,1.44,1.7,1.3,3.41,2.92,5.38,3.45,3.4.92,3.03,2.83,2.18,5.21Z"/>
      <path class="cls-53" d="m460.64,438.99c5.36.15,10.56,5.7,10.23,10.89-.34,5.24-5.55,10.15-10.62,10.01-5.36-.15-10.56-5.7-10.23-10.9.33-5.24,5.55-10.15,10.62-10.01Z"/>
      <path class="cls-52" d="m337.98,200.86c-2.37-.07-4.87,1.09-7.05-.73-.6-1.7-1.12-3.43-2.19-4.94-1.7-2.39-1.9-4.58,1.1-6.14,1.8-.94,2.04-1.92.34-3.28-2.42-1.93-2.8-4.33-.23-6.19,2.29-1.66.76-3.59,1.1-5.37,2-.56,3.39-.01,4.5,1.89,2.57,4.38,5.6,8.25,11.46,8.02.43-.02,1.01-.36,1.06.82.16,4.4.27,4.4,4.91,4.86.08.23.15.45.23.68-.07.15-.11.4-.21.43-6.14,1.62-11,5.15-15.03,9.95Z"/>
      <path class="cls-13" d="m65.18,226.52c-.08,3.67-1.3,5.72-4.12,6.31-2.8.58-5.4.09-6.57-2.98-.84-2.23-1.95-3.81-4.21-5.11-2.78-1.6-3.38-4.8-2.46-7.88.81-2.69,2.49-4.75,5.64-4.74,3.07,0,5.62,1.09,6.45,4.31,1.03,4.01,4.86,6.65,5.26,10.1Z"/>
      <path class="cls-29" d="m332.93,382.13c-5.6,6.25-8.76,14.02-12.98,21.11-10.18,17.11-20.06,34.4-29.92,51.7-2.86,5.02-6.81,7.1-12.59,7.06-25.64-.17-51.29.13-76.93-.23-5.64-.08-9.17,1.43-11.24,6.57-.55,1.37-1.46,2.59-2.2,3.87-.64,1.15-1.73,1.53-2.92,1.76,1.05-1.62,2.42-3.12,3.09-4.89,2.66-7.13,7.68-8.53,14.97-8.38,24.77.52,49.56.1,74.33.27,5.93.04,9.68-2.23,12.63-7.41,13.12-23.03,26.54-45.89,39.84-68.83.89-1.54,1.44-3.52,3.93-2.61Z"/>
      <path class="cls-29" d="m170.12,448.91c1.71-.15,1.21-.86.61-1.89-9.94-17.2-19.85-34.42-29.75-51.65-3.46-6.03-6.91-12.07-10.28-18.15-2.53-4.56-2.48-9.21.12-13.73,9.4-16.37,18.75-32.76,28.34-49.01,1.95-3.3,2.63-7.63,6.7-9.47-7.87,13.76-15.73,27.52-23.6,41.28-3.09,5.39-5.77,11.08-9.4,16.08-5.14,7.09-2.03,13.09,1.5,19.16,12.82,22.06,25.76,44.06,38.55,66.15.45.77,2.33,2.05.28,3.28-1.09-.58-2.39-.84-3.06-2.05Z"/>
      <path class="cls-45" d="m472.27,303.83c-2.21-.83-3.33.41-4.33,2.15-12.16,21.08-24.33,42.16-36.57,63.2-1.11,1.9-.71,3.37.22,5.07,5.61,10.15,11.18,20.32,16.75,30.5.67,1.22,1.21,2.04,3.04,1.64,2.72-.59,5.54-.69,7.94-2.33-.66,2.24-2.39,2.88-4.47,2.87-2.34,0-3.95,1.09-5.03,3.1-6.57-11.85-13.14-23.7-19.71-35.55-.99-1.79-1.46-3.4-.24-5.48,9.9-16.93,19.68-33.94,29.51-50.91,2.46-4.25,4.87-8.53,7.48-12.68,1.18-1.88,1.39-5.13,4.98-4.31.9.79,1.03,1.71.44,2.74Z"/>
      <path class="cls-64" d="m485.71,418.07c-3.7-.05-6.83-3.25-6.86-6.99-.02-3.23,3.24-7.68,5.61-7.65,4.67.06,9.38,3.64,9.38,7.14,0,4.32-3.52,7.58-8.13,7.51Z"/>
      <path class="cls-43" d="m331.05,174.22c2.13,2.32,4.08,4.29-.61,6.33-2.46,1.07-1.64,3.35.62,4.48,3.55,1.77,4.14,3.51-.1,4.81-3.05.93-3.02,2.43-1.73,4.74.96,1.71,2.04,3.43,1.7,5.56-4.45-6.85-8.72-13.81-12.29-21.18,3.87-1.71,7.73-3.42,11.6-5.12.29.09.56.22.81.39Z"/>
      <path class="cls-77" d="m85.15,200.89c-3.32,2.27-6.51,4.63-6.23,9.32-4.06-.45-10.16-4.83-9.29-7.24,1.11-3.06,2.25-6.6,5.91-8.13,3.19-1.34,5.46.27,7.62,2.15,1.13.98,1.83,2.35,1.99,3.91Z"/>
      <path class="cls-32" d="m329.09,169.91c-8.3-2.7-9.19-6.89-2.91-13.74,1.56-.04,3.12-.08,4.68-.12,1.93.27,1.33,2.2,2.1,3.23v.44c1.09,1.86.91,3.7-.04,5.54-1.28,1.55-2.55,3.1-3.83,4.66Z"/>
      <path class="cls-57" d="m352.02,438.07c.2.62.27,1.69.61,1.79,5.15,1.46,4.49,5.47,4.57,9.45.13,6.55.31,6.54-6.3,5.78-.61.22-1.04.02-1.28-.57-.03-3.58-.8-7.11-.91-10.68-.06-2.14.2-4.25,1.86-5.88.52-.38.99-.34,1.44.12Z"/>
      <path class="cls-84" d="m52.99,243.41c-.56,3.04-2.37,5.5-5.84,5.24-3.13-.24-5.09-2.68-4.9-5.86.18-2.92,1.44-5.76,5.11-5.38,3.19.33,5.63,1.99,5.63,6Z"/>
      <path class="cls-45" d="m344.95,200.01c18.77,0,37.54.01,56.3.02,8.73,0,11.87-2.37,14.75-11.11.71,0,1.42.01,2.13.02-1.49,4.26-4.68,7.42-7.1,11.08-.88,1.33-1.97,1.02-3.04,1.02-21.97-.03-43.94-.11-65.92-.17.44-2.03,1.6-1.62,2.87-.86Z"/>
      <path class="cls-28" d="m364.94,192.88c-1.98-.36-3.85,2.19-5.89.24-2.27-.46-4.4-1.22-6.18-2.77.14-.16.18-.34.12-.54,3.56-1.99,7.03-4.16,11.01-5.24,2.7-.73,5.22-.69,6.91,2.05,0,0-.12.45-.12.45-2.42,1.46-4.26,3.5-5.84,5.81Z"/>
      <path class="cls-86" d="m429.96,422.95c.33,0,.67,0,1,0,.62-.63,1.24-.53,1.86,0,.38.38.76.76,1.14,1.14.61.76.57,1.48-.13,2.17-1.92-2.76-4.24-1.5-6.76-.73.45.88.83,1.6,1.2,2.32,1.05,2.08.63,3.93-1.12,5.34-1.41,1.13-3.2,1.28-4.61.14-1.88-1.52-2.14-3.67-1.27-5.87.45-1.15,2.16-1.75,1.46-3.4,2.24-1.51,4.98.3,7.23-1.1Z"/>
      <path class="cls-84" d="m155.04,123.97c-.45,2.27-1.39,4.17-4.11,3.98-2.2-.15-3.81-1.4-3.73-3.77.08-2.28,1.07-4.49,3.66-4.43,2.3.05,3.81,1.73,4.17,4.22Z"/>
      <path class="cls-24" d="m346.7,165.34c2.37.64,4.05,1.87,3.8,4.43-.24,2.45-1.85,3.86-4.34,3.71-2.55-.16-3.85-1.96-3.79-4.3.07-2.6,2.24-3.3,4.33-3.83Z"/>
      <path class="cls-67" d="m352.02,438.07c-.31-.05-.62-.08-.93-.09-2.57-.72-3.86-2.46-4.11-5.06-.04-.39-.08-.79-.13-1.18-1.19-5.83-2.1-11.67-.32-17.57.81-.77,1.64-.87,2.5-.07.39,8.06-1.32,16.39,2.99,23.97Z"/>
      <path class="cls-33" d="m433.82,426.25c.04-.72.09-1.44.13-2.17,6.5,1.82,12.23,1.31,15.95-5.28-.23,5.01-3.58,6.6-7.86,7.13-2.06.25-4.2-.45-6.71.62,5.85,4.73,3.05,11,3.53,16.69-.19-.61-.57-1.24-.54-1.85.25-5.58-.06-10.96-4.49-15.15Z"/>
      <path class="cls-82" d="m92.44,380.3c-4.4,2.47-8.39,3.31-12.69,2.74-.66-.09-1.43-.35-1.33-1.12.06-.53.58-1.38,1-1.45,4.06-.61,8.13-2.67,13.02-.17Z"/>
      <path class="cls-61" d="m238.97,508.94c.92-.47,1-1.38,1.16-2.25,1.28,4.44,2.59,8.88,3.83,13.34.27.97.38,2.2-.72,2.61-1.57.58-1.97-.92-2.3-1.95-1.23-3.81-1.85-7.74-1.97-11.75Z"/>
      <path class="cls-7" d="m160.11,128.95c-.63.11-1.26.22-1.89.33-.04-5.74-.07-11.48-.11-17.23.32-.47.65-.5.99-.01,1.07.07,2.3-.24,2.82,1.16-1.44,1.42.59,3.58-1.05,4.96-1.85,3.48-.49,7.2-.76,10.79Z"/>
      <path class="cls-26" d="m187.79,99.14c2.77.7,4.9,2.3,5.73,5.3.3,1.09-.16,1.98-1.26,2.29-1.18.33-6.14-4.27-6.23-5.68-.08-1.17.32-1.92,1.77-1.9Z"/>
      <path class="cls-71" d="m497.01,279.86c-3.74,0-7.49,0-11.23-.01,3.27-5.31,7.39-5.3,11.23.01Z"/>
      <path class="cls-88" d="m367.64,453.96c-.44,1.54-1.11,2.96-2.93,2.73-1.81-.23-2.91-1.42-2.78-3.39.1-1.49.8-2.57,2.43-2.43,1.82.16,2.91,1.29,3.28,3.09Z"/>
      <path class="cls-63" d="m381.88,192.12c-.36,1-1.17,1.51-2.05,2-1.87,1.02-3.72,1.27-5.54-.04-.35-.25-.83-.86-.73-1.09.86-2.02,2.88-1.77,4.56-2.17,1.25.43,2.51.87,3.77,1.3Z"/>
      <path class="cls-16" d="m72.84,190.44c-.29,1.91-1.31,2.85-3.04,2.71-1.7-.14-2.72-1.17-2.6-2.92.11-1.58,1.22-2.23,2.7-2.24,1.75-.02,2.68.93,2.94,2.45Z"/>
      <path class="cls-30" d="m132.16,302.91c.68-.61,1.36-1.23,2.04-1.84,1.08.09,2.54-.79,3.1.58.4.98-.83,1.68-1.54,2.35-1.48,1.41-3.27,2.64-5.26,2.25-.9-.18-.4-2.09-.35-3.24.64-.62,1.31-.61,2.01-.11Z"/>
      <path class="cls-78" d="m275.03,116.27c-1.39,2.99-2.69,6.11-7.02,4.64-.32-.2-.43-.39-.32-.59.11-.19.21-.29.32-.29,1.75-1.01,3.05-2.42,4.04-4.18,1.3-2.3,2.18-1.11,2.99.42Z"/>
      <path class="cls-8" d="m480.03,279.92c-2.11-3.42-1.84-5.42,2.85-4.78.96,1.83.48,3.38-.92,4.75-.64,0-1.29.02-1.93.03Z"/>
      <path class="cls-56" d="m124.17,414.99c.9,3,2.56,4.52,6.03,4.05,2.54-.35,5.2.12,7.81.25.04,0,.11.28.08.41-.04.15-.17.28-.26.42-3.14.03-6.3-.11-9.43.14-4.19.33-5.41-1.43-4.23-5.27Z"/>
      <path class="cls-19" d="m103.06,358.96c-.47.88-1.35.95-2.19,1.1-1.55,0-3.1,0-4.65,0-2.44.47-4.89-.11-7.34.04-1.65-1.69-.49-2.03,1.05-2.19,1.66-.6,3.31-.76,4.93.11,2.58,1.61,5.51.23,8.19.95Z"/>
      <path class="cls-76" d="m117.03,256.33c.01,1.12-.49,1.73-1.47,1.61-2.46-.29-2.46-2.82-3.57-4.29-.45-.6.84-.55,1.34-.49,1.99.22,3.33,1.25,3.7,3.17Z"/>
      <path class="cls-6" d="m356.33,185.22c-1.31-.81-.89-1.32-.68-1.67.92-1.57-.41-4.31,2.45-4.83.28-.05.94.49.95.79.13,2.4-.56,4.42-2.72,5.71Z"/>
      <path class="cls-41" d="m451.8,212.02c1.65-2.51,2.22-5,5.13-4.88.25.01.77.83.67,1.04-.99,2.1-2.39,3.71-5.81,3.84Z"/>
      <path class="cls-76" d="m268,120.03c0,.29,0,.59,0,.88-2.32,0-4.65.01-6.97.02,1.37-7.76,4.72-.04,6.98-.9Z"/>
      <path class="cls-2" d="m348,411.85c.57-4.94-1.42-10.07,1.07-14.87-.05,5.01-.11,10.01-.16,15.02-.35.25-.65.2-.9-.15Z"/>
      <path class="cls-33" d="m429.96,422.95c-2.17,1.96-4.85.52-7.23,1.1-2.23.14-4.49-.62-6.69.28,4.38-3.09,9.32-.58,13.92-1.38Z"/>
      <path class="cls-17" d="m130.13,281.01c.27,0,.55,0,.82,0,.02,4.33.03,8.66.05,12.99-.29.44-.58.44-.87,0,0-4.33,0-8.66,0-13Z"/>
      <path class="cls-59" d="m350.96,151.12c-.05,1.2-.34,2.43-1.56,2.78-.92.27-1.43-.59-1.37-1.51.08-1.19.54-2.37,1.68-2.76,1.09-.37,1.22.65,1.25,1.49Z"/>
      <path class="cls-79" d="m91.06,337.99c.96-.05,2.32-.2,2.48.84.21,1.34-1.22,1.18-2.09,1.17-1.56-.02-3.24.46-4.57-.85,1.02-1.74,2.85-.55,4.18-1.16Z"/>
      <path class="cls-15" d="m88.89,360.1c2.44-1.61,4.89-.45,7.34-.04-2.44,1.14-4.89,1.59-7.34.04Z"/>
      <path class="cls-7" d="m125.06,144.05c-.46,2.06,1.16,3.54,2.18,6.02-3.14-.97-2.89-3.63-4.31-4.85.71-.39,1.42-.78,2.13-1.17Z"/>
      <path class="cls-87" d="m130.12,294.01c.29,0,.58,0,.87,0,.45,2.96-.67,6.13,1.16,8.91-.67.04-1.34.07-2.01.11,0-3-.02-6.01-.03-9.01Z"/>
      <path class="cls-83" d="m91.06,337.99c-1.07,1.54-2.78.78-4.18,1.16-.3-2.48-.01-2.56,4.18-1.16Z"/>
      <path class="cls-62" d="m106.11,248.07c0-2.04,0-4.08,0-6.12.01.89,4.34-1.63,1.34,1.74-1.02,1.15.37,3.28-1.34,4.38Z"/>
      <path class="cls-66" d="m332.96,159.28c-.7-1.07-1.4-2.15-2.1-3.23.86-.94,2.28-1.61,3-.71,1.01,1.26-1.35,2.4-.9,3.93Z"/>
      <path class="cls-48" d="m232.68,516.85c-.75-1.47-1.07-2.99.14-4.46,2.47,1.63-.37,2.97-.14,4.46Z"/>
      <path class="cls-36" d="m160.87,118.16c.92-1.53-1.8-3.83,1.05-4.96.05,1.73.39,3.51.06,5.17-.32,1.62-.82.43-1.11-.21Z"/>
      <path class="cls-20" d="m474.32,256.82c.41-1.54,1.17-2.44,2.61-2.48.19,0,.67.8.57,1.03-.59,1.36-1.66,1.77-3.18,1.45Z"/>
      <path class="cls-46" d="m396.85,182.11c-.63.31-1.26.61-1.89.92.21-1.58-1.56-2.89-.63-4.65,1.89.56,1.48,2.65,2.52,3.73Z"/>
      <path class="cls-59" d="m468.97,261.04c-.57-1.07-2.18-1.4-2.08-2.94.77.27,1.54.57,2.33.79.7.2,1.96-.39,1.97.71.01,1.12-1.12,1.48-2.22,1.44Z"/>
      <path class="cls-18" d="m349.94,454.89c.33.05.65.11.97.19-1.38,1.9-2.78,4.42-4.06-.06.09-.15.17-.31.24-.47,1.03-.57,1.98-.48,2.84.34Z"/>
      <path class="cls-54" d="m332.92,165.26c.02-1.84.04-3.69.05-5.54,3,1.87,1.42,3.7-.05,5.54Z"/>
      <path class="cls-21" d="m316.93,452.92c1.86.92,2.51,2.29,1.65,4.36-1.38-1.25-1.68-2.76-1.58-4.41,0,0-.06.05-.06.05Z"/>
      <path class="cls-36" d="m117.39,134.63c.68.06,1.23.34,1.32,1.07.09.72-.27,1.24-1.03,1.26-.65.02-1.3-.16-1.34-.98-.03-.69.32-1.19,1.05-1.35Z"/>
      <path class="cls-50" d="m206.11,103.25c.34.58.71.92.74,1.29.04.68-.35,1.26-1.11,1.01-.27-.09-.51-.77-.48-1.16.03-.33.45-.64.85-1.13Z"/>
      <path class="cls-39" d="m472.94,328.08c-.03-.83.03-1.63.86-2.12.39,1.35.78,2.71,1.17,4.06-.16.1-.32.21-.48.31-.52-.75-1.04-1.51-1.56-2.26Z"/>
      <path class="cls-5" d="m469.18,426.63c-.32-.25-.8-.45-.99-.8-.37-.69,0-1.32.66-1.53.27-.09.88.29,1.05.61.35.66-.02,1.22-.72,1.72Z"/>
      <path class="cls-1" d="m364.98,426.19c.04.67-.11,1.27-.86,1.4-.86.14-1.09-.57-1.08-1.16,0-.38.36-.97.7-1.1.67-.27,1.17.09,1.24.87Z"/>
      <path class="cls-35" d="m332.71,152.08s-.57.47-1.09.39c-.41-.06-.85-.76-1.02-1.26-.07-.21.47-.82.83-.94.67-.22,1.19.09,1.28,1.81Z"/>
      <path class="cls-73" d="m419.13,443.04c-.8.78-1.76,1.11-2.14-.21-.42-1.47.61-1.93,1.93-1.84.66.62.57,1.32.2,2.05Z"/>
      <path class="cls-37" d="m159.1,112.04c-.33.01-.66.02-.99.01,0-1.62,0-3.25,0-4.87.33-.01.66-.02.99-.04v4.89Z"/>
      <path class="cls-40" d="m70.54,219.62c-1.64.7-2.82.65-3.94-.95,1.62-.66,2.59.3,3.94.95Z"/>
      <path class="cls-65" d="m233.47,505.3c1.06,1.91.34,3.28.49,5.3-1.32-1.95-1.04-3.33-.49-5.3Z"/>
      <path class="cls-80" d="m348,411.85c.3.08.6.13.9.15.2.69,1.26,1.32.13,2.1-.66-.07-1.31-.15-1.97-.22-.41-.06-.74-.25-.99-.57,0-.2-.02-.4-.02-.6-.02-.28,0-.55.05-.82.63,0,1.27-.02,1.9-.03Z"/>
      <path class="cls-49" d="m257.94,120.95c-1.32,0-2.65-.02-3.97-.03,1.34-2.46,2.66-2.08,3.97.03Z"/>
      <path class="cls-15" d="m94.88,358.01c-1.64-.04-3.29-.07-4.93-.11,1.67-1.18,3.32-1.51,4.93.11Z"/>
      <path class="cls-10" d="m419.13,443.04c-.07-.68-.14-1.37-.2-2.05.83-.26,2.03-1.18,2.38.08.39,1.39-1.52,1.19-2.18,1.97Z"/>
      <path class="cls-38" d="m195.23,97.69c-.33.47-.53,1.06-.85,1.12-.76.16-1.19-.42-1.06-1.11.07-.35.58-.76.95-.84.24-.05.58.49.95.83Z"/>
      <path class="cls-44" d="m231.3,520.53c1.12,1.26.55,2.3.76,4.19-1.38-1.83-.96-2.87-.76-4.19Z"/>
      <path class="cls-31" d="m113.18,221.12c-1.33.71-2.67,1.43-4,2.14-.04-.7-.08-1.41-.12-2.11,1.37,0,2.75-.02,4.12-.03Z"/>
      <path class="cls-60" d="m293.06,296.96c-3.6-3.82-3.44-7.43-.68-12.03,8.37-13.95,16.46-28.08,24.18-42.4,3.55-6.58,7.34-12.97,11.27-19.31,1.38-2.22,2.81-3.24,5.53-3.23,24.97.13,49.94.16,74.91.08,2.72,0,4.14.95,5.44,3.24,12.18,21.34,24.45,42.63,36.78,63.88,1.5,2.58,1.66,4.65.09,7.33-12.56,21.5-25.01,43.07-37.38,64.68-1.18,2.06-2.51,2.68-4.74,2.7-25.3.27-50.59-.21-75.88-.61-2.12-.03-3.31-.8-4.32-2.58-10.72-18.92-21.5-37.8-32.26-56.7-1.16-1.58-1.77-3.49-2.94-5.07Z"/>
      <path class="cls-83" d="m232.51,440.94c-12.16,0-24.32-.13-36.47.08-3.12.05-4.84-1.07-6.3-3.63-12.2-21.35-24.46-42.68-36.78-63.96-1.25-2.15-1.24-3.8.01-5.95,12.3-21.1,24.53-42.23,36.67-63.43,1.41-2.47,2.98-3.44,5.87-3.42,24.65.12,49.29.11,73.94,0,2.89-.01,4.44.99,5.86,3.49,11.96,20.92,24.02,41.77,36.18,62.57,1.84,3.15,1.64,5.72-.15,8.78-12.08,20.65-24.09,41.35-35.97,62.12-1.45,2.53-3.04,3.43-5.89,3.4-12.32-.14-24.65-.06-36.97-.06Z"/>
      <path class="cls-14" d="m232.59,141.06c12.16,0,24.32.1,36.48-.06,3.03-.04,4.74.89,6.28,3.6,11.84,20.78,23.81,41.48,35.9,62.12,1.84,3.14,1.82,5.57-.02,8.71-12.13,20.61-24.13,41.3-36.02,62.05-1.53,2.67-3.24,3.61-6.28,3.6-24.32-.12-48.64-.11-72.97,0-2.98.01-4.72-.73-6.3-3.5-11.9-20.93-24-41.76-36.1-62.58-1.48-2.55-1.67-4.58-.07-7.32,12.18-20.78,24.23-41.63,36.16-62.56,1.67-2.93,3.43-4.22,6.95-4.15,11.99.25,23.99.09,35.98.1Z"/>
      <path class="cls-45" d="m481.07,279.9c-.08.12-12.18,0-12.18,0-6.61-11.14-13.3-22.23-19.81-33.43-5.65-9.72-10.67-19.83-16.8-29.23-3-4.6-3.39-7.72.81-11.18-4.38,9,3.14,14.49,6.59,20.9,8.16,15.1,17,29.82,25.57,44.69,1.33,2.31,15.2,7.15,15.81,8.25Z"/>
      <path class="cls-43" d="m352.87,190.34c2.43.09,4.96-.04,6.18,2.77-1.89,3.84-5.82,3.94-9.22,4.81-1.78.46-3.59.57-4.88,2.08-1.03.04-2.13-.16-2.87.86-1.37,0-2.74,0-4.1,0,2.55-6.93,8.16-9.51,14.89-10.52Z"/>
      <path class="cls-33" d="m432.82,422.95c-.62,0-1.24,0-1.86,0-6.32-11.62-12.69-23.22-18.92-34.89-1.99-3.73-4.48-5.33-8.99-5.22-14.58.34-29.18.15-43.77.1-1.76,0-3.67.61-5.24-.8,17.65-.07,35.3-.11,52.94-.22,2.03-.01,3.24.57,4.29,2.51,4.75,8.79,9.92,17.36,14.55,26.21,2.2,4.2,4.53,8.29,7,12.33Z"/>
      <path class="cls-70" d="m162.06,275.01c.38-.7.76-1.4,1.14-2.09,4.35,5.11,7.26,11.14,10.16,17.07,1.5,3.07-1.87,5.46-3.45,7.97-.19-.42-.66-.98-.53-1.25,1.11-2.31,3.9-4.51,2.24-7.15-3.08-4.91-4.49-10.96-9.56-14.55Z"/>
      <path class="cls-25" d="m353.04,382.1c-.1.76-.27,1.48-1.1,1.79-5.65.37-11.3,1.1-16.96.08-.77-.38-.97-1.08-1.04-1.85,6.37,0,12.73-.01,19.1-.02Z"/>
      <path class="cls-4" d="m293.06,296.96c1.97,1.12,2.67,2.97,2.94,5.07-1.86-1.18-2.49-3.07-2.94-5.07Z"/>
      <path class="cls-23" d="m334.99,383.96c5.65-1.68,11.3-1.5,16.96-.08-2.01,1.92-5.49,1.37-7,4.15-.23.37-.53.45-.91.21-.96-1.49-2.26-2.29-4.43-2,.67,2.23,2.38,3.92,2.44,6.28.07,2.66-1.04,4.3-3.29,5.58-2.31,1.32-4.17.46-5.92-.89-1.87-1.44-3.44-3.05-2.56-5.86.92-2.92,2.47-5.34,4.7-7.38Z"/>
      <path class="cls-11" d="m349.94,454.89c-.95-.11-1.89-.22-2.84-.34-1.68-7.21-1.75-14.42-.11-21.64,1.37,1.69,2.74,3.37,4.11,5.06-1.27,3.52-1.53,7.03-.41,10.69.63,2.08.55,4.28-.75,6.23Z"/>
      <path class="cls-72" d="m345.03,425.92c2.15-4.18.44-8.63.95-12.93.36.3.73.59,1.09.89-.07,5.95-.14,11.91-.21,17.86-2.94-1.21-1.67-3.74-1.83-5.82Z"/>
      <path class="cls-68" d="m322.37,414.34c-1.35-.53-1.42-1.68-1.32-2.86.07-.86.43-1.86,1.32-1.83,1.54.04,1.62,1.38,1.59,2.55-.02,1.03-.32,1.96-1.59,2.14Z"/>
      <path class="cls-34" d="m346.06,402.92c1.37,2.64,1.38,5.29-.02,7.92-.73-1.24-1.23-2.53-.9-4,.9-1.17-.26-2.82.93-3.92Z"/>
      <path class="cls-75" d="m343.88,398.95c.31.96.62,1.93.92,2.89-1.08.62-2.54,2.01-3.3.35-.7-1.53,1.17-2.42,2.37-3.24Z"/>
      <path class="cls-42" d="m330.85,422.33c-.03.72-.31,1.33-1.09,1.27-.67-.05-1.24-.56-1.13-1.28.06-.37.54-.84.93-.96.73-.23,1.21.17,1.29.96Z"/>
      <path class="cls-47" d="m157.86,280.65c.23,2.15.59,3.81-1.18,4.79-.66.37-1.29.03-1.44-.72-.39-2,.3-3.4,2.62-4.07Z"/>
      <path class="cls-3" d="m135.24,339.18c1.23-.05,1.66.6,1.74,1.47.09,1.02-.1,2.04-1.37,2.13-1.04.07-2-.36-1.9-1.6.08-.97.55-1.87,1.53-2Z"/>
      <path class="cls-12" d="m156.83,292.8c-.7.03-1.4-.08-1.37-.96.02-.94.69-1.47,1.56-1.65.64-.13,1.45-.17,1.3.84-.12.81-.49,1.59-1.48,1.77Z"/>
      <path class="cls-81" d="m137.95,266.17c.72,1.33,1.45,2.65,2.97,3.24,0,.18-.02.36-.04.55-.37.67-1.13.7-1.7,1.04-.3.02-.6.03-.9.03-.47-1.31-.94-2.62-1.4-3.93-.25-1.01.12-1.3,1.07-.93Z"/>
      <path class="cls-58" d="m139.18,271c.3-.79.93-1.02,1.7-1.04.57.29,1.17.8.71,1.37-.84,1.03-1.61-.07-2.4-.33Z"/>
      <path class="cls-69" d="m162.8,294.07c-.43-.33-.74-.57-1.04-.8.3-.31.56-.78.91-.87.25-.07.63.38.96.59-.25.32-.49.64-.83,1.08Z"/>
      <path class="cls-2" d="m345.86,396.92c.02-2.65.05-5.3.07-7.94,1.63,2.66,1.79,5.31-.07,7.94Z"/>
      <path class="cls-27" d="m137.12,261.78c-.04.44-.09.87-.13,1.31-1.76.42-2.07-1.15-2.85-2.07-.37-.34-.73-.67-1.1-1.01-.31-.43-.29-.82.12-1.17,1.82.31,2.98,1.5,3.96,2.94Z"/>
      <path class="cls-51" d="m364.94,192.88c.29-3.61,1.63-6.16,5.84-5.81.09,3.99-1.23,6.55-5.84,5.81Z"/>
      <path class="cls-22" d="m134.14,261.02c.95.69,1.9,1.38,2.85,2.07.32,1.03.64,2.05.96,3.08-.36.31-.71.62-1.07.93-1.31-1.85-2.45-3.77-2.74-6.07Z"/>
    </g>
  </g>
  <g id="WebDevs">
    <g id="Devs">
      <text class="cls-91" transform="translate(499.71 410.85)"><tspan x="0" y="0">Web</tspan></text>
    </g>
    <g id="Web">
      <text class="cls-90" transform="translate(682.93 410.92)"><tspan x="0" y="0">Devs</tspan></text>
    </g>
  </g>
  <g id="OKC_Group-2" data-name="OKC Group">
    <g id="C">
      <text class="cls-89" transform="translate(344.11 321.29)"><tspan x="0" y="0">K</tspan></text>
    </g>
    <g id="K">
      <text class="cls-89" transform="translate(202.73 403.11)"><tspan x="0" y="0">C</tspan></text>
    </g>
    <g id="O">
      <text class="cls-89" transform="translate(202.07 243.4)"><tspan x="0" y="0">O</tspan></text>
    </g>
  </g>
</svg>